<mxfile host="app.diagrams.net" modified="2024-06-28T12:55:31.904Z" agent="Mozilla/5.0 (Windows NT 10.0; Win64; x64) AppleWebKit/537.36 (KHTML, like Gecko) Chrome/125.0.0.0 Safari/537.36" etag="YvU3Hm4IbkLUSu-2UDi8" version="21.3.8" type="github">
  <diagram name="Page-1" id="2QyqYy-X_fP3DlGpqI5O">
    <mxGraphModel dx="1593" dy="820" grid="0" gridSize="10" guides="1" tooltips="1" connect="1" arrows="1" fold="1" page="0" pageScale="1" pageWidth="850" pageHeight="1100" math="0" shadow="0">
      <root>
        <mxCell id="0" />
        <mxCell id="1" parent="0" />
        <mxCell id="Tnkr0WXbzWbTKCdj3jnV-1" value="" style="rounded=0;whiteSpace=wrap;html=1;" vertex="1" parent="1">
          <mxGeometry x="190" y="270" width="120" height="60" as="geometry" />
        </mxCell>
        <mxCell id="Tnkr0WXbzWbTKCdj3jnV-2" style="edgeStyle=orthogonalEdgeStyle;rounded=0;orthogonalLoop=1;jettySize=auto;html=1;entryX=0;entryY=0;entryDx=0;entryDy=27.5;entryPerimeter=0;" edge="1" parent="1" source="Tnkr0WXbzWbTKCdj3jnV-1" target="Tnkr0WXbzWbTKCdj3jnV-3">
          <mxGeometry relative="1" as="geometry" />
        </mxCell>
        <mxCell id="Tnkr0WXbzWbTKCdj3jnV-3" value="" style="shape=cylinder3;whiteSpace=wrap;html=1;boundedLbl=1;backgroundOutline=1;size=15;" vertex="1" parent="1">
          <mxGeometry x="453" y="197" width="110" height="154" as="geometry" />
        </mxCell>
        <mxCell id="Tnkr0WXbzWbTKCdj3jnV-5" style="edgeStyle=orthogonalEdgeStyle;rounded=0;orthogonalLoop=1;jettySize=auto;html=1;entryX=0.5;entryY=0;entryDx=0;entryDy=0;entryPerimeter=0;" edge="1" parent="1" source="Tnkr0WXbzWbTKCdj3jnV-4" target="Tnkr0WXbzWbTKCdj3jnV-3">
          <mxGeometry relative="1" as="geometry" />
        </mxCell>
        <mxCell id="Tnkr0WXbzWbTKCdj3jnV-4" value="Actor" style="shape=umlActor;verticalLabelPosition=bottom;verticalAlign=top;html=1;outlineConnect=0;" vertex="1" parent="1">
          <mxGeometry x="650" y="200" width="30" height="60" as="geometry" />
        </mxCell>
        <mxCell id="Tnkr0WXbzWbTKCdj3jnV-6" value="" style="shape=flexArrow;endArrow=classic;html=1;rounded=0;" edge="1" parent="1">
          <mxGeometry width="50" height="50" relative="1" as="geometry">
            <mxPoint x="250" y="530" as="sourcePoint" />
            <mxPoint x="420" y="360" as="targetPoint" />
          </mxGeometry>
        </mxCell>
      </root>
    </mxGraphModel>
  </diagram>
</mxfile>
